<svg xmlns="http://www.w3.org/2000/svg" viewBox="0 0 320 320">
<g fill="#14b8a6">
<circle cx="8" cy="8" r="1.6" opacity="0.16"/>
<circle cx="24" cy="8" r="1.9" opacity="0.19"/>
<circle cx="40" cy="8" r="2.2" opacity="0.21"/>
<circle cx="56" cy="8" r="2.4" opacity="0.22"/>
<circle cx="72" cy="8" r="2.4" opacity="0.23"/>
<circle cx="88" cy="8" r="2.3" opacity="0.22"/>
<circle cx="104" cy="8" r="2.1" opacity="0.2"/>
<circle cx="120" cy="8" r="1.9" opacity="0.18"/>
<circle cx="136" cy="8" r="1.6" opacity="0.16"/>
<circle cx="152" cy="8" r="1.3" opacity="0.13"/>
<circle cx="168" cy="8" r="1.1" opacity="0.11"/>
<circle cx="184" cy="8" r="1.0" opacity="0.1"/>
<circle cx="200" cy="8" r="0.9" opacity="0.1"/>
<circle cx="216" cy="8" r="1.0" opacity="0.11"/>
<circle cx="232" cy="8" r="1.1" opacity="0.12"/>
<circle cx="248" cy="8" r="1.3" opacity="0.13"/>
<circle cx="264" cy="8" r="1.5" opacity="0.14"/>
<circle cx="280" cy="8" r="1.6" opacity="0.16"/>
<circle cx="296" cy="8" r="1.7" opacity="0.16"/>
<circle cx="312" cy="8" r="1.7" opacity="0.16"/>
<circle cx="8" cy="24" r="1.6" opacity="0.15"/>
<circle cx="24" cy="24" r="1.8" opacity="0.18"/>
<circle cx="40" cy="24" r="2.1" opacity="0.19"/>
<circle cx="56" cy="24" r="2.2" opacity="0.2"/>
<circle cx="72" cy="24" r="2.1" opacity="0.2"/>
<circle cx="88" cy="24" r="2.0" opacity="0.19"/>
<circle cx="104" cy="24" r="1.8" opacity="0.18"/>
<circle cx="120" cy="24" r="1.6" opacity="0.16"/>
<circle cx="136" cy="24" r="1.4" opacity="0.14"/>
<circle cx="152" cy="24" r="1.2" opacity="0.13"/>
<circle cx="168" cy="24" r="1.1" opacity="0.12"/>
<circle cx="184" cy="24" r="1.1" opacity="0.12"/>
<circle cx="200" cy="24" r="1.2" opacity="0.13"/>
<circle cx="216" cy="24" r="1.4" opacity="0.14"/>
<circle cx="232" cy="24" r="1.5" opacity="0.15"/>
<circle cx="248" cy="24" r="1.7" opacity="0.17"/>
<circle cx="264" cy="24" r="1.8" opacity="0.18"/>
<circle cx="280" cy="24" r="1.9" opacity="0.18"/>
<circle cx="296" cy="24" r="1.9" opacity="0.18"/>
<circle cx="312" cy="24" r="1.7" opacity="0.17"/>
<circle cx="8" cy="40" r="1.5" opacity="0.15"/>
<circle cx="24" cy="40" r="1.7" opacity="0.17"/>
<circle cx="40" cy="40" r="1.8" opacity="0.18"/>
<circle cx="56" cy="40" r="1.8" opacity="0.18"/>
<circle cx="72" cy="40" r="1.8" opacity="0.17"/>
<circle cx="88" cy="40" r="1.6" opacity="0.16"/>
<circle cx="104" cy="40" r="1.4" opacity="0.14"/>
<circle cx="120" cy="40" r="1.3" opacity="0.13"/>
<circle cx="136" cy="40" r="1.2" opacity="0.12"/>
<circle cx="152" cy="40" r="1.1" opacity="0.12"/>
<circle cx="168" cy="40" r="1.2" opacity="0.12"/>
<circle cx="184" cy="40" r="1.3" opacity="0.13"/>
<circle cx="200" cy="40" r="1.5" opacity="0.15"/>
<circle cx="216" cy="40" r="1.7" opacity="0.17"/>
<circle cx="232" cy="40" r="1.9" opacity="0.18"/>
<circle cx="248" cy="40" r="2.1" opacity="0.2"/>
<circle cx="264" cy="40" r="2.2" opacity="0.21"/>
<circle cx="280" cy="40" r="2.2" opacity="0.21"/>
<circle cx="296" cy="40" r="2.0" opacity="0.19"/>
<circle cx="312" cy="40" r="1.8" opacity="0.17"/>
<circle cx="8" cy="56" r="1.6" opacity="0.16"/>
<circle cx="24" cy="56" r="1.7" opacity="0.16"/>
<circle cx="40" cy="56" r="1.6" opacity="0.16"/>
<circle cx="56" cy="56" r="1.5" opacity="0.15"/>
<circle cx="72" cy="56" r="1.4" opacity="0.14"/>
<circle cx="88" cy="56" r="1.2" opacity="0.12"/>
<circle cx="104" cy="56" r="1.0" opacity="0.11"/>
<circle cx="120" cy="56" r="0.9" opacity="0.1"/>
<circle cx="136" cy="56" r="0.9" opacity="0.1"/>
<circle cx="152" cy="56" r="1.0" opacity="0.1"/>
<circle cx="168" cy="56" r="1.1" opacity="0.12"/>
<circle cx="184" cy="56" r="1.4" opacity="0.14"/>
<circle cx="200" cy="56" r="1.7" opacity="0.16"/>
<circle cx="216" cy="56" r="2.0" opacity="0.19"/>
<circle cx="232" cy="56" r="2.2" opacity="0.21"/>
<circle cx="248" cy="56" r="2.4" opacity="0.22"/>
<circle cx="264" cy="56" r="2.5" opacity="0.23"/>
<circle cx="280" cy="56" r="2.4" opacity="0.22"/>
<circle cx="296" cy="56" r="2.2" opacity="0.21"/>
<circle cx="312" cy="56" r="1.9" opacity="0.18"/>
<circle cx="8" cy="72" r="1.7" opacity="0.16"/>
<circle cx="24" cy="72" r="1.6" opacity="0.16"/>
<circle cx="40" cy="72" r="1.5" opacity="0.14"/>
<circle cx="56" cy="72" r="1.2" opacity="0.13"/>
<circle cx="72" cy="72" r="1.0" opacity="0.11"/>
<circle cx="88" cy="72" r="0.8" opacity="0.09"/>
<circle cx="104" cy="72" r="0.6" opacity="0.08"/>
<circle cx="120" cy="72" r="0.6" opacity="0.07"/>
<circle cx="136" cy="72" r="0.6" opacity="0.08"/>
<circle cx="152" cy="72" r="0.8" opacity="0.09"/>
<circle cx="168" cy="72" r="1.1" opacity="0.11"/>
<circle cx="184" cy="72" r="1.4" opacity="0.14"/>
<circle cx="200" cy="72" r="1.8" opacity="0.17"/>
<circle cx="216" cy="72" r="2.1" opacity="0.2"/>
<circle cx="232" cy="72" r="2.4" opacity="0.22"/>
<circle cx="248" cy="72" r="2.6" opacity="0.24"/>
<circle cx="264" cy="72" r="2.6" opacity="0.24"/>
<circle cx="280" cy="72" r="2.5" opacity="0.23"/>
<circle cx="296" cy="72" r="2.2" opacity="0.21"/>
<circle cx="312" cy="72" r="1.9" opacity="0.18"/>
<circle cx="8" cy="88" r="1.8" opacity="0.18"/>
<circle cx="24" cy="88" r="1.6" opacity="0.16"/>
<circle cx="40" cy="88" r="1.4" opacity="0.14"/>
<circle cx="56" cy="88" r="1.0" opacity="0.11"/>
<circle cx="72" cy="88" r="0.7" opacity="0.09"/>
<circle cx="88" cy="88" r="0.5" opacity="0.07"/>
<circle cx="104" cy="88" r="0.4" opacity="0.05"/>
<circle cx="120" cy="88" r="0.4" opacity="0.05"/>
<circle cx="136" cy="88" r="0.4" opacity="0.06"/>
<circle cx="152" cy="88" r="0.7" opacity="0.08"/>
<circle cx="168" cy="88" r="1.0" opacity="0.11"/>
<circle cx="184" cy="88" r="1.4" opacity="0.14"/>
<circle cx="200" cy="88" r="1.8" opacity="0.17"/>
<circle cx="216" cy="88" r="2.1" opacity="0.2"/>
<circle cx="232" cy="88" r="2.4" opacity="0.22"/>
<circle cx="248" cy="88" r="2.5" opacity="0.24"/>
<circle cx="264" cy="88" r="2.5" opacity="0.24"/>
<circle cx="280" cy="88" r="2.4" opacity="0.22"/>
<circle cx="296" cy="88" r="2.2" opacity="0.2"/>
<circle cx="312" cy="88" r="1.9" opacity="0.18"/>
<circle cx="8" cy="104" r="2.0" opacity="0.19"/>
<circle cx="24" cy="104" r="1.7" opacity="0.16"/>
<circle cx="40" cy="104" r="1.3" opacity="0.13"/>
<circle cx="56" cy="104" r="0.9" opacity="0.1"/>
<circle cx="72" cy="104" r="0.6" opacity="0.07"/>
<circle cx="88" cy="104" r="0.4" opacity="0.05"/>
<circle cx="104" cy="104" r="0.4" opacity="0.04"/>
<circle cx="120" cy="104" r="0.4" opacity="0.04"/>
<circle cx="136" cy="104" r="0.4" opacity="0.05"/>
<circle cx="152" cy="104" r="0.6" opacity="0.08"/>
<circle cx="168" cy="104" r="1.0" opacity="0.1"/>
<circle cx="184" cy="104" r="1.4" opacity="0.14"/>
<circle cx="200" cy="104" r="1.7" opacity="0.17"/>
<circle cx="216" cy="104" r="2.1" opacity="0.19"/>
<circle cx="232" cy="104" r="2.3" opacity="0.21"/>
<circle cx="248" cy="104" r="2.4" opacity="0.22"/>
<circle cx="264" cy="104" r="2.3" opacity="0.22"/>
<circle cx="280" cy="104" r="2.2" opacity="0.21"/>
<circle cx="296" cy="104" r="2.0" opacity="0.19"/>
<circle cx="312" cy="104" r="1.7" opacity="0.17"/>
<circle cx="8" cy="120" r="2.1" opacity="0.2"/>
<circle cx="24" cy="120" r="1.7" opacity="0.17"/>
<circle cx="40" cy="120" r="1.3" opacity="0.13"/>
<circle cx="56" cy="120" r="0.9" opacity="0.1"/>
<circle cx="72" cy="120" r="0.6" opacity="0.07"/>
<circle cx="88" cy="120" r="0.4" opacity="0.05"/>
<circle cx="104" cy="120" r="0.4" opacity="0.04"/>
<circle cx="120" cy="120" r="0.4" opacity="0.05"/>
<circle cx="136" cy="120" r="0.4" opacity="0.06"/>
<circle cx="152" cy="120" r="0.7" opacity="0.08"/>
<circle cx="168" cy="120" r="1.0" opacity="0.11"/>
<circle cx="184" cy="120" r="1.4" opacity="0.14"/>
<circle cx="200" cy="120" r="1.7" opacity="0.16"/>
<circle cx="216" cy="120" r="1.9" opacity="0.18"/>
<circle cx="232" cy="120" r="2.1" opacity="0.19"/>
<circle cx="248" cy="120" r="2.1" opacity="0.2"/>
<circle cx="264" cy="120" r="2.0" opacity="0.19"/>
<circle cx="280" cy="120" r="1.9" opacity="0.18"/>
<circle cx="296" cy="120" r="1.7" opacity="0.16"/>
<circle cx="312" cy="120" r="1.5" opacity="0.14"/>
<circle cx="8" cy="136" r="2.1" opacity="0.2"/>
<circle cx="24" cy="136" r="1.7" opacity="0.17"/>
<circle cx="40" cy="136" r="1.3" opacity="0.14"/>
<circle cx="56" cy="136" r="1.0" opacity="0.1"/>
<circle cx="72" cy="136" r="0.7" opacity="0.08"/>
<circle cx="88" cy="136" r="0.5" opacity="0.07"/>
<circle cx="104" cy="136" r="0.4" opacity="0.06"/>
<circle cx="120" cy="136" r="0.5" opacity="0.07"/>
<circle cx="136" cy="136" r="0.7" opacity="0.08"/>
<circle cx="152" cy="136" r="0.9" opacity="0.1"/>
<circle cx="168" cy="136" r="1.2" opacity="0.12"/>
<circle cx="184" cy="136" r="1.4" opacity="0.14"/>
<circle cx="200" cy="136" r="1.6" opacity="0.16"/>
<circle cx="216" cy="136" r="1.8" opacity="0.17"/>
<circle cx="232" cy="136" r="1.8" opacity="0.17"/>
<circle cx="248" cy="136" r="1.7" opacity="0.17"/>
<circle cx="264" cy="136" r="1.6" opacity="0.16"/>
<circle cx="280" cy="136" r="1.4" opacity="0.14"/>
<circle cx="296" cy="136" r="1.3" opacity="0.13"/>
<circle cx="312" cy="136" r="1.1" opacity="0.12"/>
<circle cx="8" cy="152" r="2.0" opacity="0.19"/>
<circle cx="24" cy="152" r="1.7" opacity="0.16"/>
<circle cx="40" cy="152" r="1.3" opacity="0.14"/>
<circle cx="56" cy="152" r="1.1" opacity="0.11"/>
<circle cx="72" cy="152" r="0.9" opacity="0.09"/>
<circle cx="88" cy="152" r="0.7" opacity="0.09"/>
<circle cx="104" cy="152" r="0.7" opacity="0.09"/>
<circle cx="120" cy="152" r="0.8" opacity="0.09"/>
<circle cx="136" cy="152" r="1.0" opacity="0.11"/>
<circle cx="152" cy="152" r="1.2" opacity="0.12"/>
<circle cx="168" cy="152" r="1.4" opacity="0.14"/>
<circle cx="184" cy="152" r="1.6" opacity="0.15"/>
<circle cx="200" cy="152" r="1.6" opacity="0.16"/>
<circle cx="216" cy="152" r="1.6" opacity="0.16"/>
<circle cx="232" cy="152" r="1.5" opacity="0.15"/>
<circle cx="248" cy="152" r="1.4" opacity="0.14"/>
<circle cx="264" cy="152" r="1.2" opacity="0.12"/>
<circle cx="280" cy="152" r="1.0" opacity="0.11"/>
<circle cx="296" cy="152" r="0.9" opacity="0.1"/>
<circle cx="312" cy="152" r="0.8" opacity="0.09"/>
<circle cx="8" cy="168" r="1.8" opacity="0.17"/>
<circle cx="24" cy="168" r="1.5" opacity="0.15"/>
<circle cx="40" cy="168" r="1.3" opacity="0.13"/>
<circle cx="56" cy="168" r="1.1" opacity="0.12"/>
<circle cx="72" cy="168" r="1.0" opacity="0.11"/>
<circle cx="88" cy="168" r="1.0" opacity="0.11"/>
<circle cx="104" cy="168" r="1.1" opacity="0.12"/>
<circle cx="120" cy="168" r="1.3" opacity="0.13"/>
<circle cx="136" cy="168" r="1.4" opacity="0.14"/>
<circle cx="152" cy="168" r="1.6" opacity="0.16"/>
<circle cx="168" cy="168" r="1.7" opacity="0.17"/>
<circle cx="184" cy="168" r="1.7" opacity="0.17"/>
<circle cx="200" cy="168" r="1.7" opacity="0.16"/>
<circle cx="216" cy="168" r="1.5" opacity="0.15"/>
<circle cx="232" cy="168" r="1.3" opacity="0.13"/>
<circle cx="248" cy="168" r="1.1" opacity="0.11"/>
<circle cx="264" cy="168" r="0.8" opacity="0.09"/>
<circle cx="280" cy="168" r="0.6" opacity="0.08"/>
<circle cx="296" cy="168" r="0.5" opacity="0.07"/>
<circle cx="312" cy="168" r="0.5" opacity="0.07"/>
<circle cx="8" cy="184" r="1.5" opacity="0.15"/>
<circle cx="24" cy="184" r="1.3" opacity="0.13"/>
<circle cx="40" cy="184" r="1.2" opacity="0.12"/>
<circle cx="56" cy="184" r="1.2" opacity="0.12"/>
<circle cx="72" cy="184" r="1.2" opacity="0.12"/>
<circle cx="88" cy="184" r="1.3" opacity="0.13"/>
<circle cx="104" cy="184" r="1.5" opacity="0.15"/>
<circle cx="120" cy="184" r="1.7" opacity="0.16"/>
<circle cx="136" cy="184" r="1.9" opacity="0.18"/>
<circle cx="152" cy="184" r="2.0" opacity="0.19"/>
<circle cx="168" cy="184" r="2.0" opacity="0.19"/>
<circle cx="184" cy="184" r="1.9" opacity="0.19"/>
<circle cx="200" cy="184" r="1.8" opacity="0.17"/>
<circle cx="216" cy="184" r="1.5" opacity="0.15"/>
<circle cx="232" cy="184" r="1.2" opacity="0.12"/>
<circle cx="248" cy="184" r="0.9" opacity="0.1"/>
<circle cx="264" cy="184" r="0.6" opacity="0.07"/>
<circle cx="280" cy="184" r="0.4" opacity="0.05"/>
<circle cx="296" cy="184" r="0.4" opacity="0.05"/>
<circle cx="312" cy="184" r="0.4" opacity="0.05"/>
<circle cx="8" cy="200" r="1.1" opacity="0.12"/>
<circle cx="24" cy="200" r="1.1" opacity="0.11"/>
<circle cx="40" cy="200" r="1.1" opacity="0.11"/>
<circle cx="56" cy="200" r="1.1" opacity="0.12"/>
<circle cx="72" cy="200" r="1.3" opacity="0.13"/>
<circle cx="88" cy="200" r="1.5" opacity="0.15"/>
<circle cx="104" cy="200" r="1.8" opacity="0.17"/>
<circle cx="120" cy="200" r="2.0" opacity="0.19"/>
<circle cx="136" cy="200" r="2.2" opacity="0.21"/>
<circle cx="152" cy="200" r="2.3" opacity="0.22"/>
<circle cx="168" cy="200" r="2.3" opacity="0.21"/>
<circle cx="184" cy="200" r="2.1" opacity="0.2"/>
<circle cx="200" cy="200" r="1.9" opacity="0.18"/>
<circle cx="216" cy="200" r="1.5" opacity="0.15"/>
<circle cx="232" cy="200" r="1.1" opacity="0.12"/>
<circle cx="248" cy="200" r="0.8" opacity="0.09"/>
<circle cx="264" cy="200" r="0.5" opacity="0.06"/>
<circle cx="280" cy="200" r="0.4" opacity="0.05"/>
<circle cx="296" cy="200" r="0.4" opacity="0.04"/>
<circle cx="312" cy="200" r="0.4" opacity="0.05"/>
<circle cx="8" cy="216" r="0.8" opacity="0.09"/>
<circle cx="24" cy="216" r="0.8" opacity="0.09"/>
<circle cx="40" cy="216" r="0.9" opacity="0.1"/>
<circle cx="56" cy="216" r="1.1" opacity="0.11"/>
<circle cx="72" cy="216" r="1.4" opacity="0.14"/>
<circle cx="88" cy="216" r="1.7" opacity="0.16"/>
<circle cx="104" cy="216" r="2.0" opacity="0.19"/>
<circle cx="120" cy="216" r="2.3" opacity="0.21"/>
<circle cx="136" cy="216" r="2.5" opacity="0.23"/>
<circle cx="152" cy="216" r="2.5" opacity="0.23"/>
<circle cx="168" cy="216" r="2.5" opacity="0.23"/>
<circle cx="184" cy="216" r="2.2" opacity="0.21"/>
<circle cx="200" cy="216" r="1.9" opacity="0.18"/>
<circle cx="216" cy="216" r="1.5" opacity="0.15"/>
<circle cx="232" cy="216" r="1.1" opacity="0.12"/>
<circle cx="248" cy="216" r="0.8" opacity="0.09"/>
<circle cx="264" cy="216" r="0.5" opacity="0.06"/>
<circle cx="280" cy="216" r="0.4" opacity="0.05"/>
<circle cx="296" cy="216" r="0.4" opacity="0.05"/>
<circle cx="312" cy="216" r="0.4" opacity="0.05"/>
<circle cx="8" cy="232" r="0.5" opacity="0.06"/>
<circle cx="24" cy="232" r="0.5" opacity="0.07"/>
<circle cx="40" cy="232" r="0.7" opacity="0.08"/>
<circle cx="56" cy="232" r="1.0" opacity="0.11"/>
<circle cx="72" cy="232" r="1.4" opacity="0.14"/>
<circle cx="88" cy="232" r="1.8" opacity="0.17"/>
<circle cx="104" cy="232" r="2.1" opacity="0.2"/>
<circle cx="120" cy="232" r="2.4" opacity="0.22"/>
<circle cx="136" cy="232" r="2.6" opacity="0.24"/>
<circle cx="152" cy="232" r="2.6" opacity="0.24"/>
<circle cx="168" cy="232" r="2.5" opacity="0.23"/>
<circle cx="184" cy="232" r="2.3" opacity="0.21"/>
<circle cx="200" cy="232" r="1.9" opacity="0.18"/>
<circle cx="216" cy="232" r="1.6" opacity="0.15"/>
<circle cx="232" cy="232" r="1.2" opacity="0.12"/>
<circle cx="248" cy="232" r="0.9" opacity="0.1"/>
<circle cx="264" cy="232" r="0.6" opacity="0.08"/>
<circle cx="280" cy="232" r="0.5" opacity="0.07"/>
<circle cx="296" cy="232" r="0.5" opacity="0.07"/>
<circle cx="312" cy="232" r="0.6" opacity="0.08"/>
<circle cx="8" cy="248" r="0.4" opacity="0.05"/>
<circle cx="24" cy="248" r="0.4" opacity="0.06"/>
<circle cx="40" cy="248" r="0.6" opacity="0.08"/>
<circle cx="56" cy="248" r="1.0" opacity="0.1"/>
<circle cx="72" cy="248" r="1.3" opacity="0.14"/>
<circle cx="88" cy="248" r="1.7" opacity="0.17"/>
<circle cx="104" cy="248" r="2.1" opacity="0.2"/>
<circle cx="120" cy="248" r="2.4" opacity="0.22"/>
<circle cx="136" cy="248" r="2.5" opacity="0.23"/>
<circle cx="152" cy="248" r="2.5" opacity="0.23"/>
<circle cx="168" cy="248" r="2.4" opacity="0.22"/>
<circle cx="184" cy="248" r="2.1" opacity="0.2"/>
<circle cx="200" cy="248" r="1.8" opacity="0.18"/>
<circle cx="216" cy="248" r="1.5" opacity="0.15"/>
<circle cx="232" cy="248" r="1.2" opacity="0.12"/>
<circle cx="248" cy="248" r="1.0" opacity="0.11"/>
<circle cx="264" cy="248" r="0.8" opacity="0.09"/>
<circle cx="280" cy="248" r="0.8" opacity="0.09"/>
<circle cx="296" cy="248" r="0.9" opacity="0.1"/>
<circle cx="312" cy="248" r="1.0" opacity="0.11"/>
<circle cx="8" cy="264" r="0.4" opacity="0.04"/>
<circle cx="24" cy="264" r="0.4" opacity="0.05"/>
<circle cx="40" cy="264" r="0.6" opacity="0.08"/>
<circle cx="56" cy="264" r="1.0" opacity="0.1"/>
<circle cx="72" cy="264" r="1.3" opacity="0.13"/>
<circle cx="88" cy="264" r="1.7" opacity="0.16"/>
<circle cx="104" cy="264" r="2.0" opacity="0.19"/>
<circle cx="120" cy="264" r="2.2" opacity="0.21"/>
<circle cx="136" cy="264" r="2.3" opacity="0.21"/>
<circle cx="152" cy="264" r="2.2" opacity="0.21"/>
<circle cx="168" cy="264" r="2.1" opacity="0.2"/>
<circle cx="184" cy="264" r="1.9" opacity="0.18"/>
<circle cx="200" cy="264" r="1.6" opacity="0.16"/>
<circle cx="216" cy="264" r="1.4" opacity="0.14"/>
<circle cx="232" cy="264" r="1.2" opacity="0.12"/>
<circle cx="248" cy="264" r="1.1" opacity="0.11"/>
<circle cx="264" cy="264" r="1.1" opacity="0.11"/>
<circle cx="280" cy="264" r="1.1" opacity="0.12"/>
<circle cx="296" cy="264" r="1.3" opacity="0.13"/>
<circle cx="312" cy="264" r="1.4" opacity="0.14"/>
<circle cx="8" cy="280" r="0.4" opacity="0.05"/>
<circle cx="24" cy="280" r="0.5" opacity="0.06"/>
<circle cx="40" cy="280" r="0.7" opacity="0.09"/>
<circle cx="56" cy="280" r="1.1" opacity="0.11"/>
<circle cx="72" cy="280" r="1.4" opacity="0.14"/>
<circle cx="88" cy="280" r="1.6" opacity="0.16"/>
<circle cx="104" cy="280" r="1.8" opacity="0.18"/>
<circle cx="120" cy="280" r="2.0" opacity="0.19"/>
<circle cx="136" cy="280" r="2.0" opacity="0.19"/>
<circle cx="152" cy="280" r="1.9" opacity="0.18"/>
<circle cx="168" cy="280" r="1.7" opacity="0.17"/>
<circle cx="184" cy="280" r="1.5" opacity="0.15"/>
<circle cx="200" cy="280" r="1.4" opacity="0.14"/>
<circle cx="216" cy="280" r="1.2" opacity="0.13"/>
<circle cx="232" cy="280" r="1.2" opacity="0.12"/>
<circle cx="248" cy="280" r="1.2" opacity="0.12"/>
<circle cx="264" cy="280" r="1.3" opacity="0.13"/>
<circle cx="280" cy="280" r="1.5" opacity="0.14"/>
<circle cx="296" cy="280" r="1.7" opacity="0.16"/>
<circle cx="312" cy="280" r="1.9" opacity="0.18"/>
<circle cx="8" cy="296" r="0.6" opacity="0.07"/>
<circle cx="24" cy="296" r="0.8" opacity="0.09"/>
<circle cx="40" cy="296" r="1.0" opacity="0.11"/>
<circle cx="56" cy="296" r="1.2" opacity="0.13"/>
<circle cx="72" cy="296" r="1.5" opacity="0.14"/>
<circle cx="88" cy="296" r="1.6" opacity="0.16"/>
<circle cx="104" cy="296" r="1.7" opacity="0.17"/>
<circle cx="120" cy="296" r="1.7" opacity="0.16"/>
<circle cx="136" cy="296" r="1.6" opacity="0.16"/>
<circle cx="152" cy="296" r="1.5" opacity="0.15"/>
<circle cx="168" cy="296" r="1.3" opacity="0.13"/>
<circle cx="184" cy="296" r="1.1" opacity="0.12"/>
<circle cx="200" cy="296" r="1.0" opacity="0.11"/>
<circle cx="216" cy="296" r="1.0" opacity="0.11"/>
<circle cx="232" cy="296" r="1.1" opacity="0.11"/>
<circle cx="248" cy="296" r="1.2" opacity="0.12"/>
<circle cx="264" cy="296" r="1.4" opacity="0.14"/>
<circle cx="280" cy="296" r="1.7" opacity="0.17"/>
<circle cx="296" cy="296" r="2.0" opacity="0.19"/>
<circle cx="312" cy="296" r="2.2" opacity="0.21"/>
<circle cx="8" cy="312" r="1.0" opacity="0.11"/>
<circle cx="24" cy="312" r="1.2" opacity="0.12"/>
<circle cx="40" cy="312" r="1.3" opacity="0.13"/>
<circle cx="56" cy="312" r="1.5" opacity="0.15"/>
<circle cx="72" cy="312" r="1.6" opacity="0.16"/>
<circle cx="88" cy="312" r="1.6" opacity="0.16"/>
<circle cx="104" cy="312" r="1.6" opacity="0.16"/>
<circle cx="120" cy="312" r="1.5" opacity="0.15"/>
<circle cx="136" cy="312" r="1.3" opacity="0.13"/>
<circle cx="152" cy="312" r="1.1" opacity="0.11"/>
<circle cx="168" cy="312" r="0.9" opacity="0.1"/>
<circle cx="184" cy="312" r="0.7" opacity="0.08"/>
<circle cx="200" cy="312" r="0.7" opacity="0.08"/>
<circle cx="216" cy="312" r="0.8" opacity="0.09"/>
<circle cx="232" cy="312" r="0.9" opacity="0.1"/>
<circle cx="248" cy="312" r="1.2" opacity="0.12"/>
<circle cx="264" cy="312" r="1.5" opacity="0.15"/>
<circle cx="280" cy="312" r="1.9" opacity="0.18"/>
<circle cx="296" cy="312" r="2.2" opacity="0.21"/>
<circle cx="312" cy="312" r="2.4" opacity="0.23"/>
</g></svg>
