<svg width="1200" height="630" viewBox="0 0 1200 630" fill="none" xmlns="http://www.w3.org/2000/svg">
<rect width="1200" height="630" fill="#F0F4F3"/>
<path d="M433.88 293V207.8H471.2C477.44 207.8 482.84 208.84 487.4 210.92C492.04 213 495.6 215.96 498.08 219.8C500.56 223.56 501.8 228.04 501.8 233.24C501.8 237.16 500.96 240.64 499.28 243.68C497.68 246.72 495.44 249.2 492.56 251.12C489.76 253.04 486.52 254.24 482.84 254.72L482.48 253.64C488.16 253.64 492.48 254.88 495.44 257.36C498.4 259.76 500.08 263.48 500.48 268.52L502.64 293H484.04L482.48 271.4C482.24 268.12 481.2 265.72 479.36 264.2C477.6 262.6 474.56 261.8 470.24 261.8H452.12V293H433.88ZM452.12 246.56H469.16C473.56 246.56 476.96 245.56 479.36 243.56C481.84 241.48 483.08 238.56 483.08 234.8C483.08 230.96 481.84 228.08 479.36 226.16C476.88 224.16 473.28 223.16 468.56 223.16H452.12V246.56ZM543.403 294.44C536.843 294.44 531.123 293.08 526.243 290.36C521.443 287.56 517.683 283.64 514.963 278.6C512.323 273.56 511.003 267.64 511.003 260.84C511.003 254.04 512.323 248.16 514.963 243.2C517.683 238.16 521.443 234.24 526.243 231.44C531.043 228.64 536.723 227.24 543.283 227.24C549.683 227.24 555.243 228.64 559.963 231.44C564.683 234.24 568.323 238.24 570.883 243.44C573.523 248.64 574.843 254.84 574.843 262.04V265.64H529.603C529.843 270.76 531.203 274.56 533.683 277.04C536.243 279.52 539.603 280.76 543.763 280.76C546.803 280.76 549.323 280.12 551.323 278.84C553.403 277.56 554.883 275.6 555.763 272.96L573.883 274.04C572.203 280.44 568.643 285.44 563.203 289.04C557.763 292.64 551.163 294.44 543.403 294.44ZM529.603 254.6H556.363C556.123 249.88 554.803 246.36 552.403 244.04C550.083 241.72 547.043 240.56 543.283 240.56C539.523 240.56 536.403 241.8 533.923 244.28C531.523 246.68 530.083 250.12 529.603 254.6ZM603.353 293C598.073 293 593.953 291.68 590.993 289.04C588.033 286.4 586.553 282.12 586.553 276.2V207.8H604.553V274.28C604.553 276.2 604.993 277.56 605.873 278.36C606.753 279.16 608.033 279.56 609.713 279.56H614.033V293H603.353ZM643.016 294.44C636.376 294.44 630.936 292.92 626.696 289.88C622.536 286.76 620.456 282.44 620.456 276.92C620.456 271.24 622.216 266.88 625.736 263.84C629.336 260.72 634.616 258.44 641.576 257L662.336 252.92C662.336 248.76 661.376 245.64 659.456 243.56C657.616 241.4 654.936 240.32 651.416 240.32C647.976 240.32 645.296 241.12 643.376 242.72C641.456 244.24 640.216 246.52 639.656 249.56L621.536 248.72C622.736 241.68 625.896 236.36 631.016 232.76C636.216 229.08 643.016 227.24 651.416 227.24C661.016 227.24 668.216 229.52 673.016 234.08C677.896 238.64 680.336 245.32 680.336 254.12V276.08C680.336 277.92 680.616 279.16 681.176 279.8C681.816 280.36 682.736 280.64 683.936 280.64H685.736V293C685.176 293.16 684.256 293.32 682.976 293.48C681.776 293.64 680.576 293.72 679.376 293.72C676.816 293.72 674.416 293.28 672.176 292.4C670.016 291.52 668.256 290.04 666.896 287.96C665.536 285.8 664.856 282.76 664.856 278.84L666.416 280.04C665.616 282.92 664.176 285.44 662.096 287.6C660.096 289.76 657.456 291.44 654.176 292.64C650.976 293.84 647.256 294.44 643.016 294.44ZM647.336 282.08C650.296 282.08 652.896 281.52 655.136 280.4C657.376 279.2 659.136 277.48 660.416 275.24C661.696 273 662.336 270.36 662.336 267.32V264.2L647.696 267.32C644.816 267.88 642.616 268.84 641.096 270.2C639.656 271.48 638.936 273.16 638.936 275.24C638.936 277.4 639.656 279.08 641.096 280.28C642.536 281.48 644.616 282.08 647.336 282.08ZM689.387 293L712.307 260.36L689.987 228.68H709.067L722.867 249.32L736.187 228.68H755.747L733.547 260.48L756.347 293H737.267L723.107 271.16L708.827 293H689.387ZM791.137 294.44C784.577 294.44 778.857 293.08 773.977 290.36C769.177 287.56 765.417 283.64 762.697 278.6C760.057 273.56 758.737 267.64 758.737 260.84C758.737 254.04 760.057 248.16 762.697 243.2C765.417 238.16 769.177 234.24 773.977 231.44C778.777 228.64 784.457 227.24 791.017 227.24C797.417 227.24 802.977 228.64 807.697 231.44C812.417 234.24 816.057 238.24 818.617 243.44C821.257 248.64 822.577 254.84 822.577 262.04V265.64H777.337C777.577 270.76 778.937 274.56 781.417 277.04C783.977 279.52 787.337 280.76 791.497 280.76C794.537 280.76 797.057 280.12 799.057 278.84C801.137 277.56 802.617 275.6 803.497 272.96L821.617 274.04C819.937 280.44 816.377 285.44 810.937 289.04C805.497 292.64 798.897 294.44 791.137 294.44ZM777.337 254.6H804.097C803.857 249.88 802.537 246.36 800.137 244.04C797.817 241.72 794.777 240.56 791.017 240.56C787.257 240.56 784.137 241.8 781.657 244.28C779.257 246.68 777.817 250.12 777.337 254.6ZM856.621 294.44C851.181 294.44 846.461 293.08 842.461 290.36C838.541 287.56 835.501 283.68 833.341 278.72C831.261 273.68 830.221 267.72 830.221 260.84C830.221 253.96 831.301 248.04 833.461 243.08C835.621 238.04 838.661 234.16 842.581 231.44C846.581 228.64 851.261 227.24 856.621 227.24C861.181 227.24 865.101 228.2 868.381 230.12C871.741 231.96 874.261 234.52 875.941 237.8V207.8H893.941V293H876.781L876.421 283.52C874.661 286.96 872.021 289.64 868.501 291.56C865.061 293.48 861.101 294.44 856.621 294.44ZM862.501 280.64C865.381 280.64 867.821 279.88 869.821 278.36C871.821 276.84 873.341 274.64 874.381 271.76C875.421 268.8 875.941 265.16 875.941 260.84C875.941 256.44 875.421 252.8 874.381 249.92C873.341 246.96 871.821 244.76 869.821 243.32C867.821 241.8 865.381 241.04 862.501 241.04C858.261 241.04 854.901 242.84 852.421 246.44C849.941 249.96 848.701 254.76 848.701 260.84C848.701 266.84 849.941 271.64 852.421 275.24C854.981 278.84 858.341 280.64 862.501 280.64ZM470 414.92C462.24 414.92 455.32 413.16 449.24 409.64C443.24 406.12 438.52 401.04 435.08 394.4C431.72 387.76 430.04 379.8 430.04 370.52C430.04 361.48 431.68 353.64 434.96 347C438.24 340.28 442.92 335.08 449 331.4C455.08 327.72 462.2 325.88 470.36 325.88C481.48 325.88 490.12 328.64 496.28 334.16C502.52 339.6 506.52 347.4 508.28 357.56L489.32 358.28C488.36 352.92 486.28 348.76 483.08 345.8C479.88 342.76 475.64 341.24 470.36 341.24C465.8 341.24 461.92 342.44 458.72 344.84C455.52 347.24 453.08 350.64 451.4 355.04C449.72 359.44 448.88 364.6 448.88 370.52C448.88 376.52 449.72 381.72 451.4 386.12C453.16 390.44 455.64 393.76 458.84 396.08C462.04 398.4 465.84 399.56 470.24 399.56C476 399.56 480.44 397.96 483.56 394.76C486.76 391.48 488.76 386.96 489.56 381.2L508.64 381.92C507.52 388.88 505.32 394.8 502.04 399.68C498.76 404.56 494.44 408.32 489.08 410.96C483.8 413.6 477.44 414.92 470 414.92ZM549.15 414.44C542.59 414.44 536.87 413.08 531.99 410.36C527.11 407.56 523.31 403.64 520.59 398.6C517.87 393.56 516.51 387.64 516.51 380.84C516.51 374.04 517.87 368.16 520.59 363.2C523.31 358.16 527.11 354.24 531.99 351.44C536.87 348.64 542.59 347.24 549.15 347.24C555.71 347.24 561.43 348.64 566.31 351.44C571.19 354.24 574.99 358.16 577.71 363.2C580.43 368.16 581.79 374.04 581.79 380.84C581.79 387.64 580.43 393.56 577.71 398.6C574.99 403.64 571.19 407.56 566.31 410.36C561.43 413.08 555.71 414.44 549.15 414.44ZM549.15 400.64C553.63 400.64 557.11 398.92 559.59 395.48C562.07 391.96 563.31 387.08 563.31 380.84C563.31 374.6 562.07 369.76 559.59 366.32C557.11 362.8 553.63 361.04 549.15 361.04C544.67 361.04 541.19 362.8 538.71 366.32C536.23 369.76 534.99 374.6 534.99 380.84C534.99 387.08 536.23 391.96 538.71 395.48C541.19 398.92 544.67 400.64 549.15 400.64ZM592.998 413V348.68H609.198L609.918 367.52L607.638 366.92C608.278 362.12 609.558 358.28 611.478 355.4C613.478 352.52 615.958 350.44 618.918 349.16C621.878 347.88 625.118 347.24 628.638 347.24C633.278 347.24 637.198 348.24 640.398 350.24C643.678 352.24 646.158 355.08 647.838 358.76C649.598 362.36 650.478 366.64 650.478 371.6V413H632.478V377.6C632.478 374.16 632.198 371.24 631.638 368.84C631.078 366.44 630.078 364.64 628.638 363.44C627.198 362.16 625.198 361.52 622.638 361.52C618.878 361.52 615.998 362.92 613.998 365.72C611.998 368.44 610.998 372.4 610.998 377.6V413H592.998ZM692.314 414.44C685.674 414.44 680.114 413.52 675.634 411.68C671.154 409.76 667.714 407.2 665.314 404C662.994 400.72 661.674 396.96 661.354 392.72L679.594 392.12C680.154 395.16 681.434 397.52 683.434 399.2C685.434 400.88 688.394 401.72 692.314 401.72C695.514 401.72 697.994 401.2 699.754 400.16C701.594 399.12 702.514 397.52 702.514 395.36C702.514 394 702.194 392.88 701.554 392C700.914 391.04 699.634 390.24 697.714 389.6C695.874 388.88 693.114 388.24 689.434 387.68C682.634 386.48 677.314 385.08 673.474 383.48C669.634 381.88 666.914 379.8 665.314 377.24C663.714 374.68 662.914 371.56 662.914 367.88C662.914 361.72 665.274 356.76 669.994 353C674.794 349.16 681.954 347.24 691.474 347.24C697.554 347.24 702.634 348.2 706.714 350.12C710.874 352.04 714.074 354.68 716.314 358.04C718.634 361.32 720.074 365.08 720.634 369.32L702.514 370.04C702.274 367.96 701.634 366.2 700.594 364.76C699.634 363.24 698.394 362.08 696.874 361.28C695.354 360.4 693.514 359.96 691.354 359.96C688.154 359.96 685.674 360.64 683.914 362C682.234 363.28 681.394 365 681.394 367.16C681.394 368.76 681.754 370.08 682.474 371.12C683.274 372.08 684.554 372.88 686.314 373.52C688.074 374.16 690.434 374.68 693.394 375.08C700.274 376.04 705.714 377.4 709.714 379.16C713.794 380.84 716.714 382.96 718.474 385.52C720.234 388.08 721.114 391.24 721.114 395C721.114 399.16 719.914 402.68 717.514 405.56C715.114 408.44 711.754 410.64 707.434 412.16C703.194 413.68 698.154 414.44 692.314 414.44ZM756.865 413C750.225 413 745.345 411.48 742.225 408.44C739.105 405.32 737.545 400.4 737.545 393.68V333.56H755.545V391.52C755.545 394.64 756.185 396.76 757.465 397.88C758.825 399 760.825 399.56 763.465 399.56H772.465V413H756.865ZM727.225 362.12V348.68H772.465V362.12H727.225ZM784.248 413V348.68H801.288L801.888 367.4L800.568 367.04C801.608 360.56 803.448 355.88 806.088 353C808.728 350.12 812.368 348.68 817.008 348.68H822.888V363.56H817.008C813.648 363.56 810.888 364 808.728 364.88C806.568 365.76 804.928 367.16 803.808 369.08C802.768 371 802.248 373.6 802.248 376.88V413H784.248ZM850.203 414.44C843.563 414.44 838.123 412.92 833.883 409.88C829.723 406.76 827.643 402.44 827.643 396.92C827.643 391.24 829.403 386.88 832.923 383.84C836.523 380.72 841.803 378.44 848.763 377L869.523 372.92C869.523 368.76 868.563 365.64 866.643 363.56C864.803 361.4 862.123 360.32 858.603 360.32C855.163 360.32 852.483 361.12 850.563 362.72C848.643 364.24 847.403 366.52 846.843 369.56L828.723 368.72C829.923 361.68 833.083 356.36 838.203 352.76C843.403 349.08 850.203 347.24 858.603 347.24C868.203 347.24 875.403 349.52 880.203 354.08C885.083 358.64 887.523 365.32 887.523 374.12V396.08C887.523 397.92 887.803 399.16 888.363 399.8C889.003 400.36 889.923 400.64 891.123 400.64H892.923V413C892.363 413.16 891.443 413.32 890.163 413.48C888.963 413.64 887.763 413.72 886.563 413.72C884.003 413.72 881.603 413.28 879.363 412.4C877.203 411.52 875.443 410.04 874.083 407.96C872.723 405.8 872.043 402.76 872.043 398.84L873.603 400.04C872.803 402.92 871.363 405.44 869.283 407.6C867.283 409.76 864.643 411.44 861.363 412.64C858.163 413.84 854.443 414.44 850.203 414.44ZM854.523 402.08C857.483 402.08 860.083 401.52 862.323 400.4C864.563 399.2 866.323 397.48 867.603 395.24C868.883 393 869.523 390.36 869.523 387.32V384.2L854.883 387.32C852.003 387.88 849.803 388.84 848.283 390.2C846.843 391.48 846.123 393.16 846.123 395.24C846.123 397.4 846.843 399.08 848.283 400.28C849.723 401.48 851.803 402.08 854.523 402.08ZM901.436 413V348.68H919.436V413H901.436ZM901.076 340.76V326.36H919.676V340.76H901.076ZM936.006 413V348.68H952.206L952.926 367.52L950.646 366.92C951.286 362.12 952.566 358.28 954.486 355.4C956.486 352.52 958.966 350.44 961.926 349.16C964.886 347.88 968.126 347.24 971.646 347.24C976.286 347.24 980.206 348.24 983.406 350.24C986.686 352.24 989.166 355.08 990.846 358.76C992.606 362.36 993.486 366.64 993.486 371.6V413H975.486V377.6C975.486 374.16 975.206 371.24 974.646 368.84C974.086 366.44 973.086 364.64 971.646 363.44C970.206 362.16 968.206 361.52 965.646 361.52C961.886 361.52 959.006 362.92 957.006 365.72C955.006 368.44 954.006 372.4 954.006 377.6V413H936.006ZM1031.79 413C1025.15 413 1020.27 411.48 1017.15 408.44C1014.03 405.32 1012.47 400.4 1012.47 393.68V333.56H1030.47V391.52C1030.47 394.64 1031.11 396.76 1032.39 397.88C1033.75 399 1035.75 399.56 1038.39 399.56H1047.39V413H1031.79ZM1002.15 362.12V348.68H1047.39V362.12H1002.15ZM1084.42 414.44C1077.78 414.44 1072.22 413.52 1067.74 411.68C1063.26 409.76 1059.82 407.2 1057.42 404C1055.1 400.72 1053.78 396.96 1053.46 392.72L1071.7 392.12C1072.26 395.16 1073.54 397.52 1075.54 399.2C1077.54 400.88 1080.5 401.72 1084.42 401.72C1087.62 401.72 1090.1 401.2 1091.86 400.16C1093.7 399.12 1094.62 397.52 1094.62 395.36C1094.62 394 1094.3 392.88 1093.66 392C1093.02 391.04 1091.74 390.24 1089.82 389.6C1087.98 388.88 1085.22 388.24 1081.54 387.68C1074.74 386.48 1069.42 385.08 1065.58 383.48C1061.74 381.88 1059.02 379.8 1057.42 377.24C1055.82 374.68 1055.02 371.56 1055.02 367.88C1055.02 361.72 1057.38 356.76 1062.1 353C1066.9 349.16 1074.06 347.24 1083.58 347.24C1089.66 347.24 1094.74 348.2 1098.82 350.12C1102.98 352.04 1106.18 354.68 1108.42 358.04C1110.74 361.32 1112.18 365.08 1112.74 369.32L1094.62 370.04C1094.38 367.96 1093.74 366.2 1092.7 364.76C1091.74 363.24 1090.5 362.08 1088.98 361.28C1087.46 360.4 1085.62 359.96 1083.46 359.96C1080.26 359.96 1077.78 360.64 1076.02 362C1074.34 363.28 1073.5 365 1073.5 367.16C1073.5 368.76 1073.86 370.08 1074.58 371.12C1075.38 372.08 1076.66 372.88 1078.42 373.52C1080.18 374.16 1082.54 374.68 1085.5 375.08C1092.38 376.04 1097.82 377.4 1101.82 379.16C1105.9 380.84 1108.82 382.96 1110.58 385.52C1112.34 388.08 1113.22 391.24 1113.22 395C1113.22 399.16 1112.02 402.68 1109.62 405.56C1107.22 408.44 1103.86 410.64 1099.54 412.16C1095.3 413.68 1090.26 414.44 1084.42 414.44Z" fill="#080C14"/>
<path d="M281.059 236.671L322.499 185H359V236.671H281.059Z" fill="#F2A74B"/>
<path d="M214.723 236.671H100V185H256.163L214.723 236.671Z" fill="#14B8A6"/>
<path d="M267.36 374.89L225.92 323.219H359V374.89H267.36Z" fill="#F2A74B"/>
<path d="M201.024 374.89H100V323.219H159.584L201.024 374.89Z" fill="#14B8A6"/>
<path d="M322.786 444L281.346 392.329H359V444H322.786Z" fill="#F2A74B"/>
<path d="M256.45 444H100V392.329H215.01L256.45 444Z" fill="#14B8A6"/>
<path d="M225.633 305.781L267.073 254.11H359V305.781H225.633Z" fill="#F2A74B"/>
<path d="M159.297 305.781H100V254.11H200.737L159.297 305.781Z" fill="#14B8A6"/>
</svg>
