<svg width="1200" height="630" viewBox="0 0 1200 630" fill="none" xmlns="http://www.w3.org/2000/svg">
<rect width="1200" height="630" fill="#F4F4F6"/>
<path d="M432.328 299V211.695H465.082C471.801 211.695 477.426 212.867 481.957 215.211C486.527 217.555 489.984 220.836 492.328 225.055C494.672 229.234 495.844 234.098 495.844 239.645C495.844 245.23 494.652 250.074 492.27 254.176C489.926 258.277 486.449 261.441 481.84 263.668C477.23 265.895 471.566 267.008 464.848 267.008H441.586V253.941H462.68C466.625 253.941 469.848 253.395 472.348 252.301C474.887 251.207 476.742 249.605 477.914 247.496C479.125 245.348 479.73 242.73 479.73 239.645C479.73 236.559 479.125 233.922 477.914 231.734C476.703 229.508 474.848 227.828 472.348 226.695C469.848 225.523 466.605 224.938 462.621 224.938H448.148V299H432.328ZM481.371 299L460.219 259.391H477.445L499.066 299H481.371ZM533.461 300.289C526.898 300.289 521.234 298.922 516.469 296.188C511.703 293.414 508.031 289.508 505.453 284.469C502.914 279.43 501.645 273.492 501.645 266.656C501.645 259.898 502.914 253.98 505.453 248.902C507.992 243.785 511.566 239.801 516.176 236.949C520.785 234.098 526.215 232.672 532.465 232.672C536.488 232.672 540.297 233.316 543.891 234.605C547.523 235.895 550.727 237.887 553.5 240.582C556.312 243.277 558.52 246.715 560.121 250.895C561.723 255.035 562.523 259.977 562.523 265.719V270.523H508.852V260.152H554.848L547.641 263.199C547.641 259.488 547.074 256.266 545.941 253.531C544.809 250.758 543.129 248.59 540.902 247.027C538.676 245.465 535.902 244.684 532.582 244.684C529.262 244.684 526.43 245.465 524.086 247.027C521.742 248.59 519.965 250.699 518.754 253.355C517.543 255.973 516.938 258.902 516.938 262.145V269.352C516.938 273.336 517.621 276.754 518.988 279.605C520.395 282.418 522.348 284.566 524.848 286.051C527.387 287.535 530.336 288.277 533.695 288.277C535.883 288.277 537.875 287.965 539.672 287.34C541.508 286.715 543.07 285.777 544.359 284.527C545.688 283.238 546.703 281.656 547.406 279.781L561.82 281.48C560.883 285.27 559.145 288.59 556.605 291.441C554.105 294.254 550.883 296.441 546.938 298.004C543.031 299.527 538.539 300.289 533.461 300.289ZM586.312 211.695V299H570.902V211.695H586.312ZM616.605 300.348C612.426 300.348 608.676 299.605 605.355 298.121C602.035 296.598 599.418 294.371 597.504 291.441C595.59 288.512 594.633 284.898 594.633 280.602C594.633 276.93 595.316 273.883 596.684 271.461C598.051 269.039 599.906 267.105 602.25 265.66C604.633 264.215 607.309 263.121 610.277 262.379C613.246 261.598 616.312 261.051 619.477 260.738C623.344 260.309 626.469 259.938 628.852 259.625C631.234 259.312 632.953 258.805 634.008 258.102C635.102 257.398 635.648 256.305 635.648 254.82V254.527C635.648 251.363 634.711 248.902 632.836 247.145C630.961 245.387 628.227 244.508 624.633 244.508C620.844 244.508 617.836 245.328 615.609 246.969C613.422 248.609 611.938 250.543 611.156 252.77L596.801 250.719C597.934 246.734 599.809 243.414 602.426 240.758C605.043 238.062 608.227 236.051 611.977 234.723C615.766 233.355 619.945 232.672 624.516 232.672C627.641 232.672 630.766 233.043 633.891 233.785C637.016 234.488 639.887 235.699 642.504 237.418C645.121 239.137 647.211 241.441 648.773 244.332C650.336 247.223 651.117 250.836 651.117 255.172V299H636.293V289.977H635.824C634.887 291.773 633.559 293.473 631.84 295.074C630.16 296.637 628.051 297.906 625.512 298.883C623.012 299.859 620.043 300.348 616.605 300.348ZM620.531 288.98C623.656 288.98 626.352 288.375 628.617 287.164C630.883 285.914 632.641 284.273 633.891 282.242C635.141 280.172 635.766 277.926 635.766 275.504V267.828C635.258 268.219 634.438 268.59 633.305 268.941C632.172 269.254 630.883 269.547 629.438 269.82C627.992 270.094 626.566 270.328 625.16 270.523C623.793 270.719 622.602 270.875 621.586 270.992C619.281 271.305 617.211 271.832 615.375 272.574C613.578 273.277 612.152 274.254 611.098 275.504C610.043 276.754 609.516 278.375 609.516 280.367C609.516 283.219 610.551 285.367 612.621 286.812C614.691 288.258 617.328 288.98 620.531 288.98ZM675.141 233.492L688.324 257.75L701.742 233.492H718.09L698.402 266.305L718.441 299H702.211L688.324 275.445L674.672 299H658.324L678.188 266.305L658.793 233.492H675.141ZM752.133 300.289C745.57 300.289 739.906 298.922 735.141 296.188C730.375 293.414 726.703 289.508 724.125 284.469C721.586 279.43 720.316 273.492 720.316 266.656C720.316 259.898 721.586 253.98 724.125 248.902C726.664 243.785 730.238 239.801 734.848 236.949C739.457 234.098 744.887 232.672 751.137 232.672C755.16 232.672 758.969 233.316 762.562 234.605C766.195 235.895 769.398 237.887 772.172 240.582C774.984 243.277 777.191 246.715 778.793 250.895C780.395 255.035 781.195 259.977 781.195 265.719V270.523H727.523V260.152H773.52L766.312 263.199C766.312 259.488 765.746 256.266 764.613 253.531C763.48 250.758 761.801 248.59 759.574 247.027C757.348 245.465 754.574 244.684 751.254 244.684C747.934 244.684 745.102 245.465 742.758 247.027C740.414 248.59 738.637 250.699 737.426 253.355C736.215 255.973 735.609 258.902 735.609 262.145V269.352C735.609 273.336 736.293 276.754 737.66 279.605C739.066 282.418 741.02 284.566 743.52 286.051C746.059 287.535 749.008 288.277 752.367 288.277C754.555 288.277 756.547 287.965 758.344 287.34C760.18 286.715 761.742 285.777 763.031 284.527C764.359 283.238 765.375 281.656 766.078 279.781L780.492 281.48C779.555 285.27 777.816 288.59 775.277 291.441C772.777 294.254 769.555 296.441 765.609 298.004C761.703 299.527 757.211 300.289 752.133 300.289ZM813.715 300.172C808.598 300.172 803.988 298.863 799.887 296.246C795.824 293.59 792.621 289.742 790.277 284.703C787.934 279.664 786.762 273.551 786.762 266.363C786.762 259.059 787.953 252.906 790.336 247.906C792.758 242.906 796 239.117 800.062 236.539C804.125 233.961 808.676 232.672 813.715 232.672C817.582 232.672 820.746 233.316 823.207 234.605C825.668 235.895 827.621 237.457 829.066 239.293C830.551 241.09 831.684 242.77 832.465 244.332H833.109V211.695H848.461V299H833.402V288.629H832.465C831.645 290.23 830.492 291.93 829.008 293.727C827.523 295.484 825.551 297.008 823.09 298.297C820.629 299.547 817.504 300.172 813.715 300.172ZM817.992 287.516C821.273 287.516 824.047 286.637 826.312 284.879C828.617 283.082 830.375 280.602 831.586 277.438C832.797 274.234 833.402 270.523 833.402 266.305C833.402 262.047 832.797 258.355 831.586 255.23C830.414 252.066 828.676 249.625 826.371 247.906C824.105 246.188 821.312 245.328 817.992 245.328C814.594 245.328 811.742 246.227 809.438 248.023C807.133 249.82 805.395 252.301 804.223 255.465C803.09 258.629 802.523 262.242 802.523 266.305C802.523 270.367 803.109 274 804.281 277.203C805.453 280.406 807.172 282.926 809.438 284.762C811.742 286.598 814.594 287.516 817.992 287.516ZM470.121 420.172C462.465 420.172 455.609 418.395 449.555 414.84C443.539 411.285 438.793 406.168 435.316 399.488C431.879 392.809 430.16 384.781 430.16 375.406C430.16 365.992 431.898 357.945 435.375 351.266C438.891 344.547 443.656 339.41 449.672 335.855C455.727 332.301 462.543 330.523 470.121 330.523C474.926 330.523 479.418 331.207 483.598 332.574C487.816 333.941 491.566 335.953 494.848 338.609C498.129 341.227 500.805 344.449 502.875 348.277C504.984 352.066 506.371 356.383 507.035 361.227H491.098C490.668 358.57 489.828 356.227 488.578 354.195C487.367 352.164 485.844 350.445 484.008 349.039C482.211 347.594 480.16 346.52 477.855 345.816C475.551 345.074 473.07 344.703 470.414 344.703C465.648 344.703 461.43 345.895 457.758 348.277C454.086 350.621 451.215 354.098 449.145 358.707C447.074 363.277 446.039 368.844 446.039 375.406C446.039 382.047 447.074 387.652 449.145 392.223C451.254 396.754 454.125 400.191 457.758 402.535C461.43 404.84 465.629 405.992 470.355 405.992C472.973 405.992 475.414 405.66 477.68 404.996C479.945 404.293 481.996 403.258 483.832 401.891C485.707 400.484 487.25 398.805 488.461 396.852C489.711 394.859 490.59 392.574 491.098 389.996H507.035C506.449 394.176 505.16 398.102 503.168 401.773C501.215 405.406 498.637 408.609 495.434 411.383C492.27 414.117 488.559 416.266 484.301 417.828C480.043 419.391 475.316 420.172 470.121 420.172ZM545.062 420.289C538.656 420.289 533.109 418.883 528.422 416.07C523.734 413.258 520.102 409.312 517.523 404.234C514.984 399.156 513.715 393.258 513.715 386.539C513.715 379.781 514.984 373.863 517.523 368.785C520.102 363.668 523.734 359.703 528.422 356.891C533.109 354.078 538.656 352.672 545.062 352.672C551.469 352.672 557.016 354.078 561.703 356.891C566.391 359.703 570.023 363.668 572.602 368.785C575.18 373.863 576.469 379.781 576.469 386.539C576.469 393.258 575.18 399.156 572.602 404.234C570.023 409.312 566.391 413.258 561.703 416.07C557.016 418.883 551.469 420.289 545.062 420.289ZM545.062 407.867C548.617 407.867 551.547 406.93 553.852 405.055C556.156 403.141 557.875 400.562 559.008 397.32C560.18 394.078 560.766 390.484 560.766 386.539C560.766 382.516 560.18 378.883 559.008 375.641C557.875 372.398 556.156 369.84 553.852 367.965C551.547 366.051 548.617 365.094 545.062 365.094C541.586 365.094 538.676 366.051 536.332 367.965C533.988 369.84 532.23 372.398 531.059 375.641C529.926 378.883 529.359 382.516 529.359 386.539C529.359 390.484 529.926 394.078 531.059 397.32C532.23 400.562 533.988 403.141 536.332 405.055C538.676 406.93 541.586 407.867 545.062 407.867ZM600.375 380.68V419H584.965V353.492H600.082V364.684H600.844C602.328 361.012 604.652 358.102 607.816 355.953C611.02 353.766 615.082 352.672 620.004 352.672C624.535 352.672 628.48 353.629 631.84 355.543C635.199 357.457 637.797 360.27 639.633 363.98C641.508 367.652 642.445 372.105 642.445 377.34V419H627.035V379.742C627.035 375.367 625.902 371.949 623.637 369.488C621.371 366.988 618.246 365.738 614.262 365.738C611.566 365.738 609.164 366.324 607.055 367.496C604.984 368.668 603.344 370.367 602.133 372.594C600.961 374.781 600.375 377.477 600.375 380.68ZM705.551 370.895L691.547 372.359C690.961 370.211 689.691 368.316 687.738 366.676C685.785 364.996 683.031 364.156 679.477 364.156C676.273 364.156 673.578 364.859 671.391 366.266C669.242 367.672 668.168 369.469 668.168 371.656C668.168 373.57 668.871 375.152 670.277 376.402C671.723 377.613 674.105 378.59 677.426 379.332L688.617 381.676C694.75 382.965 699.34 385.074 702.387 388.004C705.434 390.934 706.957 394.723 706.957 399.371C706.957 403.473 705.766 407.105 703.383 410.27C701 413.434 697.699 415.895 693.48 417.652C689.301 419.41 684.477 420.289 679.008 420.289C671 420.289 664.555 418.609 659.672 415.25C654.828 411.852 651.918 407.145 650.941 401.129L666 399.723C666.664 402.652 668.109 404.879 670.336 406.402C672.602 407.887 675.492 408.629 679.008 408.629C682.68 408.629 685.629 407.887 687.855 406.402C690.082 404.879 691.195 403.023 691.195 400.836C691.195 397.164 688.266 394.664 682.406 393.336L671.215 390.992C664.926 389.625 660.277 387.418 657.27 384.371C654.262 381.285 652.758 377.359 652.758 372.594C652.758 368.531 653.871 365.016 656.098 362.047C658.324 359.078 661.43 356.773 665.414 355.133C669.398 353.492 674.008 352.672 679.242 352.672C686.938 352.672 692.973 354.332 697.348 357.652C701.762 360.934 704.496 365.348 705.551 370.895ZM747.914 353.492V365.445H710.355V353.492H747.914ZM719.555 337.906H734.965V399.312C734.965 401.891 735.531 403.805 736.664 405.055C737.797 406.266 739.594 406.871 742.055 406.871C742.719 406.871 743.461 406.812 744.281 406.695C745.102 406.578 745.844 406.441 746.508 406.285L749.145 418.355C747.504 418.863 745.844 419.234 744.164 419.469C742.484 419.742 740.805 419.879 739.125 419.879C733.031 419.879 728.246 418.277 724.77 415.074C721.293 411.832 719.555 407.418 719.555 401.832V337.906ZM756.41 419V353.492H771.352V364.508H772.055C773.227 360.68 775.277 357.75 778.207 355.719C781.137 353.648 784.477 352.613 788.227 352.613C789.047 352.613 789.984 352.652 791.039 352.73C792.133 352.809 793.031 352.906 793.734 353.023V367.203C793.07 366.969 792.035 366.773 790.629 366.617C789.223 366.461 787.875 366.383 786.586 366.383C783.734 366.383 781.195 366.988 778.969 368.199C776.742 369.41 774.984 371.07 773.695 373.18C772.445 375.289 771.82 377.75 771.82 380.562V419H756.41ZM817.23 420.348C813.051 420.348 809.301 419.605 805.98 418.121C802.66 416.598 800.043 414.371 798.129 411.441C796.215 408.512 795.258 404.898 795.258 400.602C795.258 396.93 795.941 393.883 797.309 391.461C798.676 389.039 800.531 387.105 802.875 385.66C805.258 384.215 807.934 383.121 810.902 382.379C813.871 381.598 816.938 381.051 820.102 380.738C823.969 380.309 827.094 379.938 829.477 379.625C831.859 379.312 833.578 378.805 834.633 378.102C835.727 377.398 836.273 376.305 836.273 374.82V374.527C836.273 371.363 835.336 368.902 833.461 367.145C831.586 365.387 828.852 364.508 825.258 364.508C821.469 364.508 818.461 365.328 816.234 366.969C814.047 368.609 812.562 370.543 811.781 372.77L797.426 370.719C798.559 366.734 800.434 363.414 803.051 360.758C805.668 358.062 808.852 356.051 812.602 354.723C816.391 353.355 820.57 352.672 825.141 352.672C828.266 352.672 831.391 353.043 834.516 353.785C837.641 354.488 840.512 355.699 843.129 357.418C845.746 359.137 847.836 361.441 849.398 364.332C850.961 367.223 851.742 370.836 851.742 375.172V419H836.918V409.977H836.449C835.512 411.773 834.184 413.473 832.465 415.074C830.785 416.637 828.676 417.906 826.137 418.883C823.637 419.859 820.668 420.348 817.23 420.348ZM821.156 408.98C824.281 408.98 826.977 408.375 829.242 407.164C831.508 405.914 833.266 404.273 834.516 402.242C835.766 400.172 836.391 397.926 836.391 395.504V387.828C835.883 388.219 835.062 388.59 833.93 388.941C832.797 389.254 831.508 389.547 830.062 389.82C828.617 390.094 827.191 390.328 825.785 390.523C824.418 390.719 823.227 390.875 822.211 390.992C819.906 391.305 817.836 391.832 816 392.574C814.203 393.277 812.777 394.254 811.723 395.504C810.668 396.754 810.141 398.375 810.141 400.367C810.141 403.219 811.176 405.367 813.246 406.812C815.316 408.258 817.953 408.98 821.156 408.98ZM863.168 419V353.492H878.578V419H863.168ZM870.902 344.293C868.441 344.293 866.332 343.473 864.574 341.832C862.816 340.191 861.938 338.219 861.938 335.914C861.938 333.57 862.816 331.578 864.574 329.938C866.332 328.297 868.441 327.477 870.902 327.477C873.324 327.477 875.414 328.297 877.172 329.938C878.93 331.578 879.809 333.551 879.809 335.855C879.809 338.199 878.93 340.191 877.172 341.832C875.414 343.473 873.324 344.293 870.902 344.293ZM905.414 380.68V419H890.004V353.492H905.121V364.684H905.883C907.367 361.012 909.691 358.102 912.855 355.953C916.059 353.766 920.121 352.672 925.043 352.672C929.574 352.672 933.52 353.629 936.879 355.543C940.238 357.457 942.836 360.27 944.672 363.98C946.547 367.652 947.484 372.105 947.484 377.34V419H932.074V379.742C932.074 375.367 930.941 371.949 928.676 369.488C926.41 366.988 923.285 365.738 919.301 365.738C916.605 365.738 914.203 366.324 912.094 367.496C910.023 368.668 908.383 370.367 907.172 372.594C906 374.781 905.414 377.477 905.414 380.68ZM991.547 353.492V365.445H953.988V353.492H991.547ZM963.188 337.906H978.598V399.312C978.598 401.891 979.164 403.805 980.297 405.055C981.43 406.266 983.227 406.871 985.688 406.871C986.352 406.871 987.094 406.812 987.914 406.695C988.734 406.578 989.477 406.441 990.141 406.285L992.777 418.355C991.137 418.863 989.477 419.234 987.797 419.469C986.117 419.742 984.438 419.879 982.758 419.879C976.664 419.879 971.879 418.277 968.402 415.074C964.926 411.832 963.188 407.418 963.188 401.832V337.906ZM1050.79 370.895L1036.78 372.359C1036.2 370.211 1034.93 368.316 1032.97 366.676C1031.02 364.996 1028.27 364.156 1024.71 364.156C1021.51 364.156 1018.81 364.859 1016.62 366.266C1014.48 367.672 1013.4 369.469 1013.4 371.656C1013.4 373.57 1014.11 375.152 1015.51 376.402C1016.96 377.613 1019.34 378.59 1022.66 379.332L1033.85 381.676C1039.98 382.965 1044.57 385.074 1047.62 388.004C1050.67 390.934 1052.19 394.723 1052.19 399.371C1052.19 403.473 1051 407.105 1048.62 410.27C1046.23 413.434 1042.93 415.895 1038.71 417.652C1034.54 419.41 1029.71 420.289 1024.24 420.289C1016.23 420.289 1009.79 418.609 1004.91 415.25C1000.06 411.852 997.152 407.145 996.176 401.129L1011.23 399.723C1011.9 402.652 1013.34 404.879 1015.57 406.402C1017.84 407.887 1020.73 408.629 1024.24 408.629C1027.91 408.629 1030.86 407.887 1033.09 406.402C1035.32 404.879 1036.43 403.023 1036.43 400.836C1036.43 397.164 1033.5 394.664 1027.64 393.336L1016.45 390.992C1010.16 389.625 1005.51 387.418 1002.5 384.371C999.496 381.285 997.992 377.359 997.992 372.594C997.992 368.531 999.105 365.016 1001.33 362.047C1003.56 359.078 1006.66 356.773 1010.65 355.133C1014.63 353.492 1019.24 352.672 1024.48 352.672C1032.17 352.672 1038.21 354.332 1042.58 357.652C1047 360.934 1049.73 365.348 1050.79 370.895Z" fill="#080C14"/>
<path d="M275.814 254.9L307.814 215H336V254.9H275.814Z" fill="#FF634A"/>
<path d="M224.589 254.9H136V215H256.589L224.589 254.9Z" fill="#111114"/>
<path d="M265.236 361.633L233.236 321.733H336V361.633H265.236Z" fill="#FF634A"/>
<path d="M214.011 361.633C183.546 361.633 166.465 361.633 136 361.633V321.733H182.011L214.011 361.633Z" fill="#111114"/>
<path d="M308.036 415L276.036 375.1H336V415H308.036Z" fill="#FF634A"/>
<path d="M256.811 415H136V375.1H224.811L256.811 415Z" fill="#111114"/>
<path d="M233.014 308.267L265.014 268.367H336V308.267H233.014Z" fill="#FF634A"/>
<path d="M181.789 308.267H136V268.367H213.789L181.789 308.267Z" fill="#111114"/>
</svg>
